<svg width="88" height="22" viewBox="0 0 88 22" fill="none" xmlns="http://www.w3.org/2000/svg">
<path d="M75.5309 14.9111C75.8729 16.4694 76.7747 17.0194 78.6404 17.0194C80.2885 17.0194 81.1902 16.4389 81.1902 15.5222C81.1902 14.2083 79.9775 14.1167 77.4588 13.475C74.5047 12.7111 72.6079 12.0694 71.7372 11.4583C70.0892 10.3278 69.3118 8.70833 69.3118 6.66111C69.3118 2.62778 72.5457 0 78.174 0C83.6468 0 86.8496 2.35278 87.2227 6.56944H80.786C80.5683 5.31667 79.6977 4.73611 78.0496 4.73611C76.6192 4.73611 75.904 5.19444 75.904 6.14167C75.904 7.24167 76.9924 7.45555 79.0447 7.975C81.6878 8.64722 83.7712 9.04444 85.1083 9.96111C86.974 11.1833 87.8136 12.6806 87.8136 14.8194C87.8136 19.3417 84.5174 22 78.3605 22C72.6701 22 69.3429 19.3722 68.9076 14.9111H75.5309ZM50.5302 13.3222C50.157 18.7917 46.4878 22 40.3931 22C33.6143 22 29.5097 17.7833 29.5097 11C29.5097 4.18611 33.6764 0 40.2687 0C46.4256 0 50.0326 3.05556 50.4369 8.46389H43.969C43.7825 6.35556 42.5697 5.225 40.362 5.225C37.6878 5.225 36.3818 7.15 36.3818 11C36.3818 14.7889 37.8121 16.7444 40.5796 16.7444C42.6319 16.7444 43.9379 15.5222 44.1556 13.2917H50.5302V13.3222ZM49.0687 0.611111H56.003L59.5789 14.0556L63.4037 0.611111H70.0892L62.9683 21.45H56.1895L49.0687 0.611111ZM7.71179 0.0305557C6.9033 0.0305557 6.09482 0.336111 5.50401 0.947222L1.05737 5.31667C-0.155353 6.50833 -0.155353 8.46389 1.05737 9.68611L13.6199 22L26.1514 9.65555C27.3641 8.46389 27.3641 6.50833 26.1514 5.28611L21.7047 0.947222C21.0828 0.336111 20.2743 0.0305557 19.4969 0.0305557C18.6885 0.0305557 17.88 0.336111 17.2581 0.947222L13.6199 4.55278L9.95065 0.947222C9.32875 0.336111 8.52027 0.0305557 7.71179 0.0305557Z" fill="#CC0000"/>
</svg>
