<svg xmlns="http://www.w3.org/2000/svg" viewBox="0 0 124.8 59.6"><defs><style>.a{fill:#fff;}</style></defs><path class="a" d="M124.9,38.3V20.2A21.35,21.35,0,0,0,109.7,1a18.21,18.21,0,0,0-5.2-.8H65.9V38.4a13.4,13.4,0,0,0,.1,2,17.78,17.78,0,0,0,.7,3.9A20.86,20.86,0,0,0,79.9,58.5a21.14,21.14,0,0,0,7.5,1.3h15.8a20.9,20.9,0,0,0,2.5-.1,16.68,16.68,0,0,0,3.1-.5,21.3,21.3,0,0,0,12.6-8.8,20.28,20.28,0,0,0,3.3-8.2c.1-1.2.2-2.5.2-3.9ZM104.6,14.2a11.53,11.53,0,0,1-.3,2.6,7.63,7.63,0,0,1-1.7,3.2,8.07,8.07,0,0,1-2.4,1.7,10.08,10.08,0,0,1-3.4.9,25.49,25.49,0,0,1-3.9.2H90.7V8.2a12.1,12.1,0,0,1,.1-1.9.37.37,0,0,1,.1-.3,1.22,1.22,0,0,1,.8-.9,5.08,5.08,0,0,1,1.7-.3,14.08,14.08,0,0,1,2-.1,12.72,12.72,0,0,1,3.9.6,7.58,7.58,0,0,1,4.9,5.1,12,12,0,0,1,.4,3.8ZM107,35a13.94,13.94,0,0,1,.3,4.1,19.09,19.09,0,0,1-.6,3.3,8.48,8.48,0,0,1-5,5.3,16.81,16.81,0,0,1-3.2.9,14.15,14.15,0,0,1-2.9.2,7.46,7.46,0,0,1-2.6-.4,3,3,0,0,1-1.9-1.9,7.79,7.79,0,0,1-.4-2.1c0-.7-.1-1.4-.1-2.1V27.5h3.7a20.29,20.29,0,0,1,6,.9,9,9,0,0,1,2.8,1.3A8,8,0,0,1,107,35Zm15.9,3.8a19.25,19.25,0,0,1-14.6,18.5h0a27.41,27.41,0,0,1-2.8.5c-.7,0-1.4.1-2.2.1H87a19.12,19.12,0,0,1-10.6-3.2,19.45,19.45,0,0,1-4.5-4.1A9.08,9.08,0,0,1,70,46.1a12.92,12.92,0,0,1-.1-3.4c.1-1.2.2-2.4.4-3.5s.3-2.2.4-3.4.3-2.2.4-3.3.2-1.9.3-2.9.2-1.9.3-2.9.2-1.9.3-2.9.2-1.9.3-2.9a13.55,13.55,0,0,0,.2-2c0-.2,0-.4-.2-.5a10.63,10.63,0,0,1-1.1-.9.52.52,0,0,1-.2-.4v-3h2.5V9.4H72.3s2.8-2.2,4.1-3.2a.55.55,0,0,0,.3-.5V3.1a.22.22,0,0,1,.2-.2H77c.1,0,.3.1.3.2V5.7a.55.55,0,0,0,.3.5l4.2,3.2H80.6v4.7h2.5v3c0,.1-.1.3-.2.3-.4.3-.8.7-1.2,1-.1.1-.2.2-.1.3.1.9.2,1.8.3,2.6l.3,2.7.3,2.7.3,2.7.3,2.7.3,2.7.3,2.7.3,2.7.3,2.7.3,2.7a18.57,18.57,0,0,0,.5,3.4c.1.4.2.7.3,1.1a4.83,4.83,0,0,0,2.8,2.8,8.56,8.56,0,0,0,2.3.5c1.2.1,2.4.2,3.6.2s2.6-.1,3.8-.2a50.3,50.3,0,0,0,5.6-.9c.6-.2,1.2-.3,1.8-.5a21.9,21.9,0,0,0,5.9-3,16,16,0,0,0,4.6-5.4,13.75,13.75,0,0,0,1.3-4.5,14.7,14.7,0,0,0-.6-5.9,12.29,12.29,0,0,0-4-5.5,16.24,16.24,0,0,0-4.9-2.5c-.5-.2-1-.3-1.5-.5-.1,0-.2-.1-.3-.1.1-.1.2-.1.3-.2a13.85,13.85,0,0,0,3.3-2,11.51,11.51,0,0,0,4.3-7.2,12.88,12.88,0,0,0-1.6-9,1.76,1.76,0,0,0-.4-.5c-.8-1.1-2.3-2.4-2.3-2.5s.2,0,.2.1a18.86,18.86,0,0,1,11.7,10.9,16.3,16.3,0,0,1,1.3,4.8,19.42,19.42,0,0,1,.2,2.4c.1,5.7.1,11.5.1,17.4ZM75.7,14.1h3V9.4h-3Z" transform="translate(-0.1 -0.2)"/><path class="a" d="M6.4,44.4a5.24,5.24,0,0,0,3.4-1,2.82,2.82,0,0,0,1.3-2.6,3.23,3.23,0,0,0-.8-2.1,3.58,3.58,0,0,0-2.2-1.1c1.7-.5,2.6-1.5,2.6-3.1a2.84,2.84,0,0,0-1.1-2.3,5.07,5.07,0,0,0-3.2-.8H.1v13ZM3,33.7H6a4,4,0,0,1,1.5.3A1.43,1.43,0,0,1,8,35.1c0,.9-.7,1.4-2,1.4H3Zm0,5.1H6c1.5,0,2.3.5,2.3,1.6S7.5,42,6,42H3Zm10.8,4.5a5,5,0,0,0,3.5,1.4,4.27,4.27,0,0,0,3.5-1.4,4.9,4.9,0,0,0,1.4-3.6,4.62,4.62,0,0,0-4.4-4.9h-.5a5.08,5.08,0,0,0-4.9,5.1A4.76,4.76,0,0,0,13.8,43.3Zm3.5-.7a2,2,0,0,1-1.6-.7,3.28,3.28,0,0,1-.6-2.1,3.7,3.7,0,0,1,.6-2.1,2,2,0,0,1,2.8-.3l.3.3a3.94,3.94,0,0,1,.6,2.1,3.28,3.28,0,0,1-.6,2.1A2,2,0,0,1,17.3,42.6Zm7.3,1.3a5.92,5.92,0,0,0,2.9.7,6.06,6.06,0,0,0,3.2-.8,2.75,2.75,0,0,0,1.2-2.2c0-1.5-1.1-2.5-3.2-2.9l-1.3-.2a1.69,1.69,0,0,1-1-.3.71.71,0,0,1-.3-.6.91.91,0,0,1,.3-.7,1.16,1.16,0,0,1,1-.2A1.84,1.84,0,0,1,29.3,38l2.2-1a3.39,3.39,0,0,0-1.4-1.5,4.42,4.42,0,0,0-2.5-.6,5,5,0,0,0-2.9.8,2.61,2.61,0,0,0-1.1,2.1,2.23,2.23,0,0,0,.7,1.9,5.51,5.51,0,0,0,2.3.9l1.3.3a1.8,1.8,0,0,1,.9.4.86.86,0,0,1,.3.6.75.75,0,0,1-.4.7,1.93,1.93,0,0,1-1,.3,2.17,2.17,0,0,1-1.6-.5,2.35,2.35,0,0,1-.5-1l-2.5.6a3.17,3.17,0,0,0,1.5,1.9Zm10.1-.2a2.34,2.34,0,0,0,1.7.7h3.1V42.3h-2c-.4.1-.7-.2-.8-.6V37.1h2.4v-2H36.7V32.2H34.1v2.9h-2v2h2v4.8a2.79,2.79,0,0,0,.6,1.8Zm6.9-.4a5,5,0,0,0,3.5,1.4,4.27,4.27,0,0,0,3.5-1.4A4.9,4.9,0,0,0,50,39.7a5,5,0,0,0-5-4.8,4.91,4.91,0,0,0-4.8,5A4.76,4.76,0,0,0,41.6,43.3Zm3.5-.7a2,2,0,0,1-1.6-.7,3.28,3.28,0,0,1-.6-2.1,3.7,3.7,0,0,1,.6-2.1,2,2,0,0,1,2.8-.3l.3.3a3.94,3.94,0,0,1,.6,2.1,3.28,3.28,0,0,1-.6,2.1A2,2,0,0,1,45.1,42.6Zm9.2,1.8V40a4,4,0,0,1,.6-2.5,1.46,1.46,0,0,1,1.2-.5c1,0,1.5.6,1.5,1.7v5.6h2.6V38.1a3.74,3.74,0,0,0-.8-2.5,2.87,2.87,0,0,0-2.3-.9,3.4,3.4,0,0,0-3,1.7V35H51.5v9.3h2.8Z" transform="translate(-0.1 -0.2)"/><path class="a" d="M1.7,25.9a5.94,5.94,0,0,0,4.2,1.4,6.44,6.44,0,0,0,4.2-1.4A5,5,0,0,0,11.7,22V14.1H9v7.5C9,23.8,8,25,6,25a2.66,2.66,0,0,1-2.2-.9A3.29,3.29,0,0,1,3,21.6V14.1H.2V22A5,5,0,0,0,1.7,25.9Zm15.7,1.2V16.5L21,27.1h2.5l3.6-10.6V27.1H30v-13H25.5l-2.2,6.3c-.4,1.2-.7,2.1-1,2.8-.2-.6-.6-1.5-1-2.8l-2.1-6.3H14.6v13Zm15.3-.4a2.7,2.7,0,0,0,2.1.7A3.51,3.51,0,0,0,38,25.7a1.51,1.51,0,0,0,1.7,1.4h2v-2h-.8a.48.48,0,0,1-.6-.2V21.2a3.39,3.39,0,0,0-1.1-2.7,4.59,4.59,0,0,0-3.1-.9,5.53,5.53,0,0,0-3.1.8,2.84,2.84,0,0,0-1.3,2l2.4.5a1.8,1.8,0,0,1,2-1.5c1,0,1.5.4,1.5,1.3v.4a20,20,0,0,0-2.4.4,12.66,12.66,0,0,0-1.8.6,2.54,2.54,0,0,0-1.2,1.1,2.93,2.93,0,0,0-.4,1.6,3.38,3.38,0,0,0,.9,1.9Zm4.5-1.8a2,2,0,0,1-1.4.6c-.8,0-1.2-.3-1.2-1a1.3,1.3,0,0,1,.8-1.2,10.55,10.55,0,0,1,2.4-.6v.6A2.27,2.27,0,0,1,37.2,24.9Zm6.4,1.7a5.92,5.92,0,0,0,2.9.7,6.06,6.06,0,0,0,3.2-.8,2.75,2.75,0,0,0,1.2-2.2c0-1.5-1.1-2.5-3.2-2.9l-1.3-.2a1.69,1.69,0,0,1-1-.3.71.71,0,0,1-.3-.6.91.91,0,0,1,.3-.7,1.16,1.16,0,0,1,1-.2,1.84,1.84,0,0,1,1.9,1.3l2.2-1a3.39,3.39,0,0,0-1.4-1.5,4.42,4.42,0,0,0-2.5-.6,5,5,0,0,0-2.9.8,2.61,2.61,0,0,0-1.1,2.1,2.23,2.23,0,0,0,.7,1.9,5.47,5.47,0,0,0,2.4.9l1.3.3a1.8,1.8,0,0,1,.9.4.86.86,0,0,1,.3.6.75.75,0,0,1-.4.7,1.93,1.93,0,0,1-1,.3,2.17,2.17,0,0,1-1.6-.5,2.35,2.35,0,0,1-.5-1l-2.4.8a2.36,2.36,0,0,0,1.3,1.7Zm9.6,0a5.92,5.92,0,0,0,2.9.7,6.06,6.06,0,0,0,3.2-.8,2.75,2.75,0,0,0,1.2-2.2c0-1.5-1.1-2.5-3.2-2.9L56,21.2a1.69,1.69,0,0,1-1-.3.71.71,0,0,1-.3-.6.91.91,0,0,1,.3-.7,1.16,1.16,0,0,1,1-.2,1.84,1.84,0,0,1,1.9,1.3l2.2-1a3.39,3.39,0,0,0-1.4-1.5,4.42,4.42,0,0,0-2.5-.6,5,5,0,0,0-2.9.8,2.61,2.61,0,0,0-1.1,2.1,2.23,2.23,0,0,0,.7,1.9,5.47,5.47,0,0,0,2.4.9l1.3.3a1.8,1.8,0,0,1,.9.4.86.86,0,0,1,.3.6.75.75,0,0,1-.4.7,1.93,1.93,0,0,1-1,.3,2.17,2.17,0,0,1-1.6-.5,2.35,2.35,0,0,1-.5-1l-2.4.8a2.36,2.36,0,0,0,1.3,1.7Z" transform="translate(-0.1 -0.2)"/></svg>