<svg xmlns="http://www.w3.org/2000/svg" version="1.1" xmlns:xlink="http://www.w3.org/1999/xlink" xmlns:svgjs="http://svgjs.dev/svgjs" width="2000" height="2250" viewBox="0 0 2000 2250"><g transform="matrix(1,0,0,1,3.410605131648481e-13,0)"><svg viewBox="0 0 320 360" data-background-color="#ffffff" preserveAspectRatio="xMidYMid meet" height="2250" width="2000" xmlns="http://www.w3.org/2000/svg" xmlns:xlink="http://www.w3.org/1999/xlink"><g id="tight-bounds" transform="matrix(1,0,0,1,0,0)"><svg viewBox="0 0 320 360" height="360" width="320"><g><svg></svg></g><g><svg viewBox="0 0 320 360" height="360" width="320"><g><path d="M20.961 227.22l3.726 4.658-1.863-6.056c-0.466-2.795-3.726 0.466-1.863 1.398M25.153 224.425c1.397 2.329 2.795 4.658 2.795 6.987 0 3.261 2.795 4.658 5.123 5.589-3.261-3.726-5.124-13.974-7.918-12.576M204.017 26.929c7.918 0 15.371-0.932 23.756 0.931 20.495 5.124 37.729 15.371 49.374 29.811l32.606 52.169c1.397 13.042 4.192 27.482 3.726 43.319 3.261 0 2.795-4.658 6.521-5.59-3.726 9.316-5.59 20.961-6.521 34.469-2.329-7.453 0-18.632 0.466-24.687-3.261 5.124-5.124 1.397-5.124-0.932 0.466-3.726-1.397-3.261-2.795-4.658-5.124-4.658-8.384-9.782-12.11-17.7 2.329-6.055 2.795-14.905-4.658-19.563-2.329-1.397-5.124-3.726-6.521-7.453-1.863-5.124-5.124-11.179-4.193-19.097 0.466-2.329-6.987 5.124-11.179 1.863-18.166-12.576-36.332-27.016-58.224-39.127-11.645 0-20.029-4.192-24.221-9.316-3.726-4.658-0.932-10.713 4.658-11.179 3.261 0 6.987-0.932 9.782 0.932 0.466-1.863 2.329-4.192 4.657-4.192M157.904 16.215l0.932 0.466c4.658 0.932 6.987 7.453 12.11 5.124 0 3.261 0.466 6.521-0.466 8.85-1.397 3.726-5.59 3.726-8.85 3.726-31.208-1.863-49.374 11.179-68.471 22.358-5.124 3.261-10.713 5.59-14.906 9.782-20.029 18.632-41.921 35.866-47.045 70.335l-4.192 38.195c-0.466 4.192-5.124 8.384-4.192 13.508l3.26 22.824c-3.261-3.261-5.124 0.932-4.192 2.795 0.466 1.397 2.329 6.055 5.124 1.863 3.726 6.987 7.453 20.495 12.576 26.55 15.837 18.632 36.332 35.4 53.101 52.169 4.192-0.932 7.453-0.932 8.384-3.727 1.397 2.795-1.397 5.59-3.726 6.056 7.453 4.658 15.837 8.85 27.016 9.781 14.44 0.932 27.948 3.261 40.524 6.522 6.521-1.863 13.042-2.795 20.029-3.261 2.329 0 3.726-3.726 6.521-4.658l0.466-4.658c2.795 4.192 2.329-1.397 0.466-4.192 3.261 2.795 4.192 5.124 5.589 6.987 0-1.397 3.726-6.521 3.727-0.466l0.931-6.055c1.397-0.932 1.863 5.124 3.261 0.931 1.397-4.192 4.192-0.932 6.987-2.329-0.932 1.863-0.466 5.59 2.794 3.261l3.727-3.261c2.329 5.59 6.055 3.261 7.918 2.329 20.495-13.042 40.99-28.413 60.553-43.784l-0.466 6.055 2.329-7.453c2.329 2.329 4.192 0.466 5.124-0.931 2.795-4.658 6.521-9.316 12.577-13.508-7.453 20.029-16.303 35.866-27.482 48.908l-4.658 5.59c0 3.261-0.932 7.453-4.658 7.918-1.863 0.466-5.59-0.932-8.384 1.863-1.397 1.863 3.261 5.59-0.466 2.795-3.261-2.329-6.521 0-10.248 0.932-2.795 0.932 1.863 3.726 2.795 5.589 0.932 1.863 1.863 3.726 1.398 6.056l-5.124-5.59c-6.055 3.261-9.782 9.316-14.906 13.974-2.329 1.863-1.397 5.124-1.397 7.918-3.261 0-6.987-0.932-8.85 0.932-1.397 1.863-0.932 4.658-0.932 7.453-4.658-0.466-5.124-7.453-9.315-6.056-4.192 0.932-8.85 1.397-12.577 3.727 2.795 5.59-4.658 2.329-3.726 3.26-6.987-4.192-13.042-7.453-20.495-4.658-15.837-5.124-35.4-2.795-49.84-0.931 0-2.329 0.466-4.658-0.466-5.124-0.932 2.329-3.726 1.397-3.26 1.397-8.85-6.055-17.7-9.782-27.016-14.905-8.384 0.932-16.303-3.261-18.632-5.59-6.521-6.055-13.974-2.795-20.029-4.192-13.042-3.261-17.7-16.769-19.098-26.084-0.932-4.658-4.658-6.521-6.055-6.056-6.055-19.563-15.371-37.263-22.824-55.429-1.863-4.658-1.397-9.316-1.397-14.44 2.329 0.932 4.658 0.466 4.192-2.794-2.329-15.371-7.918-27.016-13.974-38.195 3.261-15.837 3.726-34.469 11.179-48.443 6.521-12.576 18.632-19.098 27.016-29.811 2.795-3.726 2.795-8.85 5.59-12.11 9.316-9.316 18.632-19.098 28.879-27.482 4.658-3.726 10.247 0 17.234-1.397 2.329-8.384 11.645-15.837 20.495-13.508 3.726 0.932 11.179-8.85 13.508-9.782 3.726-1.397 1.863 3.726 1.863 6.987 8.85-6.987 20.961-10.713 32.14-14.906" fill="#dd534a" fill-rule="nonzero" stroke="none" stroke-width="1" stroke-linecap="butt" stroke-linejoin="miter" stroke-miterlimit="10" stroke-dasharray="" stroke-dashoffset="0" font-family="none" font-weight="none" font-size="none" text-anchor="none" style="mix-blend-mode: normal" data-fill-palette-color="tertiary"></path></g><g transform="matrix(1,0,0,1,64,138.4773129051267)"><svg viewBox="0 0 192 83.04537418974661" height="83.04537418974661" width="192"><g><svg viewBox="0 0 192 83.04537418974661" height="83.04537418974661" width="192"><g><svg viewBox="0 0 192 83.04537418974661" height="83.04537418974661" width="192"><g><svg viewBox="0 0 192 83.04537418974661" height="83.04537418974661" width="192"><g id="textblocktransform"><svg viewBox="0 0 192 83.04537418974661" height="83.04537418974661" width="192" id="textblock"><g><svg viewBox="0 0 192 83.04537418974661" height="83.04537418974661" width="192"><g transform="matrix(1,0,0,1,0,0)"><svg width="192" viewBox="-0.55 -35.5 84.85 36.7" height="83.04537418974661" data-palette-color="#ff4136"><path d="M19.35 1.2L19.35 1.2Q17.25 1.2 13.23-1 9.2-3.2 8.55-3.35L8.55-3.35Q5.55 0.6 2.95 0.6L2.95 0.6Q2.25 0.6 0.85-1.35-0.55-3.3-0.55-5L-0.55-5Q-0.55-5.75 1-6.88 2.55-8 4.55-8.45L4.55-8.45Q5.9-11.6 7.23-18 8.55-24.4 8.55-29.25L8.55-29.25Q8.55-30.05 8.03-31.05 7.5-32.05 7-32.65L7-32.65 6.45-33.25 6.6-34.25Q9.35-35.5 18-35.5L18-35.5Q18.8-34.25 18.8-31.25 18.8-28.25 16.15-20.85 13.5-13.45 10.85-8L10.85-8Q15.85-6.7 20.4-6.7L20.4-6.7Q21.45-6.7 22.13-7.2 22.8-7.7 23.6-9.3L23.6-9.3 26.35-8.35Q25.55-3.6 23.93-1.2 22.3 1.2 19.35 1.2ZM48 0.6Q45.15 0.6 43.47-1.43 41.8-3.45 41.8-6.55 41.8-9.65 42.2-14.55 42.6-19.45 42.6-23.6 42.6-27.75 41.8-29.7L41.8-29.7Q41.45-30.45 39.7-32.55L39.7-32.55 39.05-33.3 39.25-34.3Q43.65-35.45 51.25-35.45L51.25-35.45Q52.5-34 52.5-29.75 52.5-25.5 51.9-19.58 51.3-13.65 51.3-10.95 51.3-8.25 51.7-7.4 52.1-6.55 53-6.55 53.9-6.55 55.35-7.53 56.8-8.5 57.65-9.6L57.65-9.6Q57.65-9.9 58.37-16.07 59.1-22.25 59.1-26.3 59.1-30.35 58.15-33.45L58.15-33.45Q62.5-35.45 68.59-35.5L68.59-35.5Q69.45-33.7 69.45-30 69.45-26.3 68.17-18.55 66.9-10.8 66.9-9.4L66.9-9.4Q66.9-6.6 68.32-6.6 69.75-6.6 71.97-9.1 74.2-11.6 76.02-15.53 77.85-19.45 78.05-22.9L78.05-22.9 72.4-26.7Q72.84-31.2 75.6-34.3L75.6-34.3Q76.2-34.95 77-35.45L77-35.45Q80.6-35.45 82.45-33.55 84.3-31.65 84.3-29.35L84.3-29.35Q84.3-25.25 82.45-20.03 80.6-14.8 77.72-10.25 74.85-5.7 70.92-2.55 67 0.6 63.25 0.6L63.25 0.6Q61.25 0.6 59.7-0.7 58.15-2 57.6-4.65L57.6-4.65Q52.6 0.6 48 0.6L48 0.6Z" opacity="1" transform="matrix(1,0,0,1,0,0)" fill="#ff4136" class="wordmark-text-0" data-fill-palette-color="primary" id="text-0"></path></svg></g></svg></g></svg></g></svg></g><g></g></svg></g></svg></g></svg></g></svg></g><defs></defs></svg><rect width="320" height="360" fill="none" stroke="none" visibility="hidden"></rect></g></svg></g></svg>