<svg xmlns="http://www.w3.org/2000/svg" version="1.1" xmlns:xlink="http://www.w3.org/1999/xlink" xmlns:svgjs="http://svgjs.dev/svgjs" width="2000" height="2250" viewBox="0 0 2000 2250"><g transform="matrix(1,0,0,1,0,0)"><svg viewBox="0 0 320 360" data-background-color="#ffffff" preserveAspectRatio="xMidYMid meet" height="2250" width="2000" xmlns="http://www.w3.org/2000/svg" xmlns:xlink="http://www.w3.org/1999/xlink"><g id="tight-bounds" transform="matrix(1,0,0,1,0,0)"><svg viewBox="0 0 320 360" height="360" width="320"><rect width="320" height="360" fill="url(#d79e3d18-c3ea-4911-b0f7-25e9413e11ea)" mask="url(#520835ce-6019-4556-991d-967da8e0be29)" data-fill-palette-color="tertiary"></rect><g><svg></svg></g><g><svg viewBox="0 0 320 360" height="360" width="320"><g><path xmlns="http://www.w3.org/2000/svg" d="M320 187.111c0-45.764-20.238-86.866-52.203-114.908-28.043-31.964-69.145-52.203-114.908-52.203-84.302 0-152.889 68.587-152.889 152.889 0 45.753 20.231 86.848 52.185 114.891 28.043 31.975 69.152 52.22 114.926 52.22 0.299 0 0.59-0.021 0.889-0.021 0.299 0 0.59 0.021 0.889 0.021 83.456 0 151.111-67.655 151.111-151.111 0-0.299-0.021-0.59-0.021-0.889 0-0.299 0.021-0.59 0.021-0.889zM59.833 263.097c-15.093-21.255-24.071-47.143-24.256-75.097 0.48-72.928 59.492-131.943 132.423-132.423 27.954 0.185 53.845 9.163 75.097 24.256 24.366 23.627 39.57 56.64 39.57 93.056 0 71.559-58.219 129.778-129.778 129.778-36.416 0-69.429-15.204-93.056-39.57zM3.556 172.889c0-82.343 66.99-149.333 149.333-149.333 35.051 0 67.292 12.167 92.8 32.462-22.98-13.824-49.863-21.796-78.578-21.796-84.302 0-152.889 68.587-152.889 152.889 0 28.708 7.968 55.584 21.785 78.56-20.288-25.5-32.452-57.739-32.451-92.782zM167.111 318.667c-35.84 0-68.363-14.418-92.107-37.743 21.952 15.89 48.864 25.298 77.885 25.298 73.522 0 133.333-59.812 133.333-133.333 0-29.02-9.408-55.932-25.298-77.885 23.324 23.744 37.742 56.267 37.743 92.107 0 72.54-59.015 131.556-131.556 131.556z" fill="url(#d79e3d18-c3ea-4911-b0f7-25e9413e11ea)" fill-rule="nonzero" stroke="none" stroke-width="1" stroke-linecap="butt" stroke-linejoin="miter" stroke-miterlimit="10" stroke-dasharray="" stroke-dashoffset="0" font-family="none" font-weight="none" font-size="none" text-anchor="none" style="mix-blend-mode: normal" data-fill-palette-color="tertiary"></path></g><g transform="matrix(1,0,0,1,64,135.14136125654449)"><svg viewBox="0 0 192 89.717277486911" height="89.717277486911" width="192"><g><svg viewBox="0 0 192 89.717277486911" height="89.717277486911" width="192"><g><svg viewBox="0 0 192 89.717277486911" height="89.717277486911" width="192"><g><svg viewBox="0 0 192 89.717277486911" height="89.717277486911" width="192"><g id="textblocktransform"><svg viewBox="0 0 192 89.717277486911" height="89.717277486911" width="192" id="textblock"><g><svg viewBox="0 0 192 89.717277486911" height="89.717277486911" width="192"><g transform="matrix(1,0,0,1,0,0)"><svg width="192" viewBox="0.10000000149011612 -35.20000076293945 76.4000015258789 35.70000076293945" height="89.717277486911" data-palette-color="url(#21dca338-0ccc-4cfa-852c-b81ba733d0be)"></svg></g></svg></g></svg></g></svg></g><g></g></svg></g></svg></g></svg></g></svg></g><defs></defs><mask id="c062b3e5-60f1-401b-9364-b7436b91571d"><g id="SvgjsG1777"><svg viewBox="0 0 320 360" height="360" width="320"><g><svg></svg></g><g><svg viewBox="0 0 320 360" height="360" width="320"><g></g><g transform="matrix(1,0,0,1,64,135.14136125654449)"><svg viewBox="0 0 192 89.717277486911" height="89.717277486911" width="192"><g><svg viewBox="0 0 192 89.717277486911" height="89.717277486911" width="192"><g><svg viewBox="0 0 192 89.717277486911" height="89.717277486911" width="192"><g><svg viewBox="0 0 192 89.717277486911" height="89.717277486911" width="192"><g id="SvgjsG1776"><svg viewBox="0 0 192 89.717277486911" height="89.717277486911" width="192" id="SvgjsSvg1775"><g><svg viewBox="0 0 192 89.717277486911" height="89.717277486911" width="192"><g transform="matrix(1,0,0,1,0,0)"><svg width="192" viewBox="0.10000000149011612 -35.20000076293945 76.4000015258789 35.70000076293945" height="89.717277486911" data-palette-color="url(#21dca338-0ccc-4cfa-852c-b81ba733d0be)"><path d="M8 0.5Q5.6 0.5 3.83-0.4 2.05-1.3 1.13-2.63 0.2-3.95 0.1-5.25L0.1-5.25Q0.1-6.5 0.83-7.98 1.55-9.45 2.55-10.5 3.55-11.55 4.1-11.55L4.1-11.55Q4.35-11.55 4.45-10.95L4.45-10.95Q4.85-7.9 5.28-6.33 5.7-4.75 6.68-3.93 7.65-3.1 9.6-3.1L9.6-3.1Q12.3-3.1 13.68-4.5 15.05-5.9 15.05-8.3L15.05-8.3Q15.05-9.9 14.45-11.1 13.85-12.3 12.3-14.25L12.3-14.25 7.55-19.85Q6.45-21.15 6.03-22.28 5.6-23.4 5.6-24.8L5.6-24.8Q5.6-27.4 6.9-29.8 8.2-32.2 10.73-33.7 13.25-35.2 16.75-35.2L16.75-35.2Q19.7-35.2 21.38-34.05 23.05-32.9 23.05-30.8L23.05-30.8Q23.05-29.95 22.8-29.13 22.55-28.3 22.15-27.65L22.15-27.65Q21.6-26.8 21.18-26.45 20.75-26.1 20.25-26.1L20.25-26.1Q19.7-26.1 19.5-26.58 19.3-27.05 19.2-27.9L19.2-27.9Q19.05-29.8 18.18-30.83 17.3-31.85 15.15-31.85L15.15-31.85Q12.9-31.85 11.65-30.73 10.4-29.6 10.4-27.8L10.4-27.8Q10.4-26.75 10.8-25.88 11.2-25 12.05-24L12.05-24 16.85-18.5Q18.6-16.55 19.4-14.75 20.2-12.95 20.2-10.95L20.2-10.95Q20.2-7.95 18.5-5.3 16.8-2.65 13.98-1.07 11.15 0.5 8 0.5L8 0.5ZM45.75 0.5Q45.3 0.5 45.2 0.35 45.09 0.2 45.2-0.2L45.2-0.2Q46.15-8.8 46.4-12.25 46.65-15.7 46.65-20.75L46.65-20.75Q46.65-24.55 46.5-26.43 46.34-28.3 45.9-29.1 45.45-29.9 44.5-29.9L44.5-29.9Q43.2-29.9 42.32-28.78 41.45-27.65 40.59-25.65L40.59-25.65Q40.4-25.1 40.2-24.9 40-24.7 39.7-24.7L39.7-24.7Q39.45-24.7 39.37-24.9 39.3-25.1 39.3-25.55L39.3-25.55Q39.3-27.7 40.37-29.95 41.45-32.2 43.22-33.7 45-35.2 47.05-35.2L47.05-35.2Q49-35.2 50-33.65 51-32.1 51.37-29.08 51.75-26.05 51.75-20.95L51.75-20.95Q51.75-16.2 51.55-14.4L51.55-14.4 51.59-14.4 56.84-25.2 58.9-29.5Q59.5-30.65 60.47-31.68 61.45-32.7 62.4-33.33 63.34-33.95 63.84-33.95L63.84-33.95Q64.2-33.95 64.15-33.55L64.15-33.55Q63.65-30.45 63.65-28.15L63.65-28.15Q63.65-24.65 64.15-16.75L64.15-16.75Q64.5-11.2 64.59-10.55L64.59-10.55 64.65-10.55Q64.8-10.9 65.09-11.53 65.4-12.15 65.75-12.9L65.75-12.9 68.2-18.05Q69.5-20.9 70.19-23 70.9-25.1 70.9-26.65L70.9-26.65Q70.9-27.9 70.52-28.55 70.15-29.2 69.77-29.5 69.4-29.8 69.34-29.9L69.34-29.9Q69.2-30.25 70.02-31.58 70.84-32.9 71.94-34.05 73.05-35.2 73.69-35.2L73.69-35.2Q74.19-35.2 74.87-34.52 75.55-33.85 76.02-32.77 76.5-31.7 76.5-30.55L76.5-30.55Q76.5-29.4 75.97-27.9 75.44-26.4 74.25-23.7L74.25-23.7 65.25-4.6Q64.15-2.15 62.4-0.55L62.4-0.55Q61.25 0.5 60.7 0.5L60.7 0.5Q60.25 0.5 60.15 0.1 60.05-0.3 60.05-1.07 60.05-1.85 60.05-2.15L60.05-2.15Q60.05-5.2 59.3-14.1L59.3-14.1Q58.9-18.6 58.75-21.5L58.75-21.5 58.7-21.5Q57-18.7 55.55-15.55 54.09-12.4 53.09-10.08 52.09-7.75 51.84-7.15L51.84-7.15 50.7-4.45Q49.45-1.8 47.34-0.2L47.34-0.2Q47.25-0.15 46.77 0.18 46.3 0.5 45.75 0.5L45.75 0.5Z" opacity="1" transform="matrix(1,0,0,1,0,0)" fill="white" class="wordmark-text-0" id="SvgjsPath1774"></path></svg></g></svg></g></svg></g></svg></g><g></g></svg></g></svg></g></svg></g></svg></g><defs><mask></mask></defs></svg></g></mask><linearGradient x1="0" x2="1" y1="0.548" y2="0.55" id="21dca338-0ccc-4cfa-852c-b81ba733d0be"><stop stop-color="#ff6cab" offset="0"></stop><stop stop-color="#7366ff" offset="1"></stop></linearGradient><rect width="320" height="360" fill="url(#21dca338-0ccc-4cfa-852c-b81ba733d0be)" mask="url(#c062b3e5-60f1-401b-9364-b7436b91571d)" data-fill-palette-color="primary"></rect><mask id="520835ce-6019-4556-991d-967da8e0be29"><g id="SvgjsG1784"><svg viewBox="0 0 320 360" height="360" width="320"><g><svg></svg></g><g><svg viewBox="0 0 320 360" height="360" width="320"><g><path xmlns="http://www.w3.org/2000/svg" d="M320 187.111c0-45.764-20.238-86.866-52.203-114.908-28.043-31.964-69.145-52.203-114.908-52.203-84.302 0-152.889 68.587-152.889 152.889 0 45.753 20.231 86.848 52.185 114.891 28.043 31.975 69.152 52.22 114.926 52.22 0.299 0 0.59-0.021 0.889-0.021 0.299 0 0.59 0.021 0.889 0.021 83.456 0 151.111-67.655 151.111-151.111 0-0.299-0.021-0.59-0.021-0.889 0-0.299 0.021-0.59 0.021-0.889zM59.833 263.097c-15.093-21.255-24.071-47.143-24.256-75.097 0.48-72.928 59.492-131.943 132.423-132.423 27.954 0.185 53.845 9.163 75.097 24.256 24.366 23.627 39.57 56.64 39.57 93.056 0 71.559-58.219 129.778-129.778 129.778-36.416 0-69.429-15.204-93.056-39.57zM3.556 172.889c0-82.343 66.99-149.333 149.333-149.333 35.051 0 67.292 12.167 92.8 32.462-22.98-13.824-49.863-21.796-78.578-21.796-84.302 0-152.889 68.587-152.889 152.889 0 28.708 7.968 55.584 21.785 78.56-20.288-25.5-32.452-57.739-32.451-92.782zM167.111 318.667c-35.84 0-68.363-14.418-92.107-37.743 21.952 15.89 48.864 25.298 77.885 25.298 73.522 0 133.333-59.812 133.333-133.333 0-29.02-9.408-55.932-25.298-77.885 23.324 23.744 37.742 56.267 37.743 92.107 0 72.54-59.015 131.556-131.556 131.556z" fill="white" fill-rule="nonzero" stroke="none" stroke-width="1" stroke-linecap="butt" stroke-linejoin="miter" stroke-miterlimit="10" stroke-dasharray="" stroke-dashoffset="0" font-family="none" font-weight="none" font-size="none" text-anchor="none" style="mix-blend-mode: normal"></path></g><g transform="matrix(1,0,0,1,64,135.14136125654449)"><svg viewBox="0 0 192 89.717277486911" height="89.717277486911" width="192"><g><svg viewBox="0 0 192 89.717277486911" height="89.717277486911" width="192"><g><svg viewBox="0 0 192 89.717277486911" height="89.717277486911" width="192"><g><svg viewBox="0 0 192 89.717277486911" height="89.717277486911" width="192"><g id="SvgjsG1783"><svg viewBox="0 0 192 89.717277486911" height="89.717277486911" width="192" id="SvgjsSvg1782"><g><svg viewBox="0 0 192 89.717277486911" height="89.717277486911" width="192"><g transform="matrix(1,0,0,1,0,0)"><svg width="192" viewBox="0.10000000149011612 -35.20000076293945 76.4000015258789 35.70000076293945" height="89.717277486911" data-palette-color="url(#21dca338-0ccc-4cfa-852c-b81ba733d0be)"></svg></g></svg></g></svg></g></svg></g><g></g></svg></g></svg></g></svg></g></svg></g><defs><mask></mask></defs><mask><g id="SvgjsG1781"><svg viewBox="0 0 320 360" height="360" width="320"><g><svg></svg></g><g><svg viewBox="0 0 320 360" height="360" width="320"><g></g><g transform="matrix(1,0,0,1,64,135.14136125654449)"><svg viewBox="0 0 192 89.717277486911" height="89.717277486911" width="192"><g><svg viewBox="0 0 192 89.717277486911" height="89.717277486911" width="192"><g><svg viewBox="0 0 192 89.717277486911" height="89.717277486911" width="192"><g><svg viewBox="0 0 192 89.717277486911" height="89.717277486911" width="192"><g id="SvgjsG1780"><svg viewBox="0 0 192 89.717277486911" height="89.717277486911" width="192" id="SvgjsSvg1779"><g><svg viewBox="0 0 192 89.717277486911" height="89.717277486911" width="192"><g transform="matrix(1,0,0,1,0,0)"><svg width="192" viewBox="0.10000000149011612 -35.20000076293945 76.4000015258789 35.70000076293945" height="89.717277486911" data-palette-color="url(#21dca338-0ccc-4cfa-852c-b81ba733d0be)"></svg></g></svg></g></svg></g></svg></g><g></g></svg></g></svg></g></svg></g></svg></g><defs><mask></mask></defs></svg></g></mask></svg></g></mask><linearGradient x1="0" x2="1" y1="0.548" y2="0.55" id="d79e3d18-c3ea-4911-b0f7-25e9413e11ea"><stop stop-color="#ff6cab" offset="0"></stop><stop stop-color="#7366ff" offset="1"></stop></linearGradient></svg><rect width="320" height="360" fill="none" stroke="none" visibility="hidden"></rect></g></svg></g></svg>